<?xml version="1.0" standalone="no"?>
<!DOCTYPE svg PUBLIC "-//W3C//DTD SVG 20010904//EN"
 "http://www.w3.org/TR/2001/REC-SVG-20010904/DTD/svg10.dtd">
<svg version="1.0" xmlns="http://www.w3.org/2000/svg"
 width="700.000000pt" height="700.000000pt" viewBox="0 0 700.000000 700.000000"
 preserveAspectRatio="xMidYMid meet">
<metadata>
Created by potrace 1.11, written by Peter Selinger 2001-2013
</metadata>
<g transform="translate(0.000000,700.000000) scale(0.100000,-0.100000)"
fill="#000000" stroke="none">
<path d="M1599 6996 c-2 -2 -29 -6 -59 -10 -58 -6 -70 -8 -188 -32 -195 -40
-460 -160 -622 -280 -25 -19 -58 -44 -75 -56 -51 -39 -213 -200 -263 -263
-127 -158 -232 -348 -296 -533 -20 -57 -38 -113 -40 -125 -3 -12 -12 -56 -20
-97 -8 -41 -18 -91 -22 -110 -4 -19 -9 -526 -11 -1125 l-4 -1091 38 -20 c21
-12 286 -164 588 -339 303 -175 640 -370 750 -433 110 -63 254 -146 320 -185
66 -38 140 -81 165 -95 25 -14 62 -36 82 -49 21 -12 39 -23 41 -23 3 0 76 -42
163 -93 278 -163 427 -221 689 -267 121 -21 358 -23 462 -5 298 53 535 233
744 565 30 47 60 95 66 105 7 11 20 33 29 49 9 17 115 201 236 410 121 210
232 401 246 426 13 25 55 97 92 160 37 63 113 196 170 295 57 99 118 205 136
235 43 73 240 413 272 470 14 25 34 59 44 75 10 17 21 37 25 45 3 8 21 39 40
68 18 29 33 54 33 57 0 3 27 50 60 106 33 55 60 103 60 105 0 2 11 21 23 42
13 20 68 114 122 207 188 325 260 450 344 597 10 18 50 87 88 153 139 239 227
392 281 485 l55 94 -49 45 c-65 59 -188 151 -202 151 -5 0 -12 4 -14 8 -5 13
-157 97 -243 134 -79 34 -218 83 -266 94 -25 5 -145 29 -208 41 -37 7 -3874
16 -3882 9z"/>
<path d="M6830 5402 c-69 -119 -126 -222 -128 -229 -2 -7 -8 -13 -13 -13 -5 0
-9 -5 -9 -11 0 -6 -31 -63 -69 -127 -59 -102 -261 -450 -318 -552 -25 -44
-452 -784 -499 -865 -45 -76 -36 -62 -145 -250 -50 -88 -113 -196 -139 -240
-26 -44 -91 -156 -145 -250 -53 -93 -114 -199 -135 -235 -21 -36 -88 -153
-150 -260 -211 -367 -263 -455 -324 -545 -33 -49 -63 -92 -66 -95 -3 -3 -31
-38 -63 -78 -75 -94 -244 -262 -333 -331 -103 -81 -247 -172 -359 -230 -56
-28 -104 -51 -108 -51 -4 0 -26 -9 -50 -19 -82 -38 -295 -99 -407 -116 -25 -4
-54 -9 -65 -11 -36 -7 -209 -18 -285 -17 -122 0 -359 27 -432 49 -10 3 -30 7
-45 10 -16 3 -36 7 -45 10 -9 3 -25 6 -35 8 -159 31 -482 162 -653 266 -53 31
-80 48 -153 88 -92 53 -697 403 -727 421 -19 12 -47 27 -63 33 -15 7 -27 16
-27 20 0 4 -5 8 -10 8 -6 0 -40 18 -76 40 -36 22 -68 40 -70 40 -3 0 -122 69
-154 90 -8 6 -22 13 -30 17 -8 4 -37 20 -65 36 -27 17 -63 38 -80 47 -65 38
-162 93 -195 112 -19 11 -60 35 -91 54 -31 19 -60 34 -64 34 -8 0 0 -701 9
-745 3 -16 13 -68 22 -115 78 -411 332 -806 687 -1068 31 -23 58 -42 61 -42 3
0 24 -13 48 -29 180 -121 471 -220 733 -250 100 -12 3801 -13 3870 -1 28 4 73
11 100 14 28 4 93 18 145 31 539 135 989 529 1195 1045 39 99 87 268 100 355
4 28 10 61 13 75 10 41 12 3851 2 3910 -5 30 -11 73 -14 95 -9 60 -12 74 -17
79 -2 2 -60 -93 -129 -212z"/>
</g>
</svg>
